<?xml version="1.0" encoding="utf-8"?>
<!-- Generator: Adobe Illustrator 22.1.0, SVG Export Plug-In . SVG Version: 6.00 Build 0)  -->
<svg version="1.1" id="Layer_1" xmlns="http://www.w3.org/2000/svg" xmlns:xlink="http://www.w3.org/1999/xlink" x="0px" y="0px"
	 viewBox="0 0 109.8 89.9" style="enable-background:new 0 0 109.8 89.9;" xml:space="preserve">
<style type="text/css">
	.st0{opacity:0.9;fill:#FFFFFF;}
	.st1{fill:#FFD0E7;stroke:#7B41A4;stroke-miterlimit:10;}
	.st2{fill:none;stroke:#7B41A4;stroke-width:1.0072;stroke-miterlimit:10;}
	.st3{fill:none;stroke:#7B41A4;stroke-miterlimit:10;}
	.st4{fill:none;stroke:#7B41A4;stroke-width:0.4;stroke-miterlimit:10;}
	.st5{fill:none;}
	.st6{fill:#7B41A4;}
	.st7{font-family:'TimesNewRomanPS-BoldMT';}
	.st8{font-size:9px;}
</style>
<rect class="st0" width="109.8" height="89.9"/>
<circle class="st1" cx="16.5" cy="23.8" r="9.5"/>
<path class="st2" d="M14.4,38.5L14.4,38.5C7.4,39,1.9,44.8,1.9,51.9s5.5,12.9,12.5,13.4l0,0h11.2V38.5H14.4z"/>
<path class="st3" d="M48.6,23.8v41.6H30.5V23.8c0,0-0.6-7.9-5.7-9.5l9-10.5h64.9L48.6,65.4"/>
<path class="st4" d="M56.8,79.3"/>
<path class="st4" d="M98.6,7.1"/>
<path class="st3" d="M24.8,14.3c0,0,15.4-6,23.8,9.5"/>
<path class="st3" d="M150,64.1"/>
<path class="st3" d="M107.3,17.8c0,0-9.1-2.4-8.7-14"/>
<line class="st3" x1="107.3" y1="17.8" x2="57.3" y2="79.4"/>
<path class="st3" d="M111.8,110.1"/>
<line class="st4" x1="105.5" y1="17.6" x2="55.4" y2="79.2"/>
<line class="st4" x1="103.8" y1="16.6" x2="53.7" y2="78.1"/>
<line class="st4" x1="98.9" y1="8.9" x2="48.9" y2="70.5"/>
<line class="st4" x1="98.6" y1="6.6" x2="48.5" y2="68.2"/>
<line class="st4" x1="102.1" y1="15" x2="52.1" y2="76.6"/>
<line class="st4" x1="100.5" y1="12.9" x2="50.4" y2="74.5"/>
<line class="st4" x1="99.6" y1="10.9" x2="49.5" y2="72.5"/>
<text transform="matrix(1 0 0 1 378.0929 3053.0308)" style="font-family:'MyriadPro-Regular'; font-size:12px;">  data-aos=&quot;fade-up&quot;</text>
<rect x="2.7" y="69.4" class="st5" width="58.5" height="22"/>
<text transform="matrix(1 0 0 1 2.6595 75.3892)"><tspan x="0" y="0" class="st6 st7 st8">archivi udi</tspan><tspan x="0" y="8.8" class="st6 st7 st8">rete regionale</tspan></text>
</svg>
